<mxfile host="app.diagrams.net" agent="Mozilla/5.0 (Macintosh; Intel Mac OS X 10_15_7) AppleWebKit/605.1.15 (KHTML, like Gecko) Version/18.0 Safari/605.1.15" version="24.7.14">
  <diagram id="07fea595-8f29-1299-0266-81d95cde20df" name="Page-1">
    <mxGraphModel dx="-430" dy="1294" grid="1" gridSize="10" guides="1" tooltips="1" connect="1" arrows="1" fold="1" page="1" pageScale="1" pageWidth="1169" pageHeight="827" background="none" math="0" shadow="0">
      <root>
        <mxCell id="0" />
        <mxCell id="1" parent="0" />
        <mxCell id="727" value="" style="edgeStyle=none;html=1;fontColor=#000000;strokeWidth=3;strokeColor=#000000;shape=link;width=-2.8571428571428568;" parent="1" edge="1">
          <mxGeometry width="100" height="100" relative="1" as="geometry">
            <mxPoint x="2760" y="1546.5" as="sourcePoint" />
            <mxPoint x="2762.5" y="872" as="targetPoint" />
          </mxGeometry>
        </mxCell>
        <mxCell id="729" value="" style="whiteSpace=wrap;fillColor=#CC99FF;gradientDirection=east;strokeColor=#9673a6;html=1;" parent="1" vertex="1">
          <mxGeometry x="2762.5" y="1392" width="840" height="120" as="geometry" />
        </mxCell>
        <mxCell id="734" value="" style="edgeStyle=none;html=1;fontColor=#000000;strokeWidth=3;strokeColor=#000000;" parent="1" edge="1">
          <mxGeometry width="100" height="100" relative="1" as="geometry">
            <mxPoint x="2760" y="1546.5" as="sourcePoint" />
            <mxPoint x="3812.5" y="1542" as="targetPoint" />
          </mxGeometry>
        </mxCell>
        <mxCell id="736" value="0" style="text;spacingTop=-5;align=center;verticalAlign=middle;fontStyle=0;html=1;fontSize=18;points=[];strokeColor=none;" parent="1" vertex="1">
          <mxGeometry x="2700" y="1546.5" width="120" height="30" as="geometry" />
        </mxCell>
        <mxCell id="737" value="10" style="text;spacingTop=-5;align=center;verticalAlign=middle;fontStyle=0;html=1;fontSize=18;points=[];strokeColor=none;" parent="1" vertex="1">
          <mxGeometry x="2820" y="1546.5" width="120" height="30" as="geometry" />
        </mxCell>
        <mxCell id="742" value="Skill Shortages" style="text;spacingTop=-5;html=1;points=[];fontSize=35;" parent="1" vertex="1">
          <mxGeometry x="2480" y="950" width="200" height="20" as="geometry" />
        </mxCell>
        <mxCell id="743" value="Data Access&amp;nbsp;" style="text;spacingTop=-5;html=1;points=[];fontSize=35;" parent="1" vertex="1">
          <mxGeometry x="2490" y="1110" width="80" height="20" as="geometry" />
        </mxCell>
        <mxCell id="744" value="Technical Complexity" style="text;spacingTop=-5;html=1;points=[];fontSize=35;" parent="1" vertex="1">
          <mxGeometry x="2420" y="1420" width="80" height="20" as="geometry" />
        </mxCell>
        <mxCell id="749" value="&lt;font style=&quot;font-size: 40px;&quot;&gt;Challenges Faced by Business in AI Integration&lt;/font&gt;" style="text;spacingTop=-5;align=center;verticalAlign=middle;fontSize=40;fontStyle=1;html=1;points=[]" parent="1" vertex="1">
          <mxGeometry x="2835" y="720" width="810" height="45" as="geometry" />
        </mxCell>
        <mxCell id="6RLW1QieSQcELM51D8rQ-754" value="20" style="text;spacingTop=-5;align=center;verticalAlign=middle;fontStyle=0;html=1;fontSize=18;points=[];strokeColor=none;" vertex="1" parent="1">
          <mxGeometry x="2940" y="1546.5" width="120" height="30" as="geometry" />
        </mxCell>
        <mxCell id="6RLW1QieSQcELM51D8rQ-755" value="30" style="text;spacingTop=-5;align=center;verticalAlign=middle;fontStyle=0;html=1;fontSize=18;points=[];strokeColor=none;" vertex="1" parent="1">
          <mxGeometry x="3060" y="1546.5" width="120" height="30" as="geometry" />
        </mxCell>
        <mxCell id="6RLW1QieSQcELM51D8rQ-756" value="40" style="text;spacingTop=-5;align=center;verticalAlign=middle;fontStyle=0;html=1;fontSize=18;points=[];strokeColor=none;" vertex="1" parent="1">
          <mxGeometry x="3180" y="1546.5" width="120" height="30" as="geometry" />
        </mxCell>
        <mxCell id="6RLW1QieSQcELM51D8rQ-757" value="50" style="text;spacingTop=-5;align=center;verticalAlign=middle;fontStyle=0;html=1;fontSize=18;points=[];strokeColor=none;" vertex="1" parent="1">
          <mxGeometry x="3300" y="1546.5" width="120" height="30" as="geometry" />
        </mxCell>
        <mxCell id="6RLW1QieSQcELM51D8rQ-759" value="60" style="text;spacingTop=-5;align=center;verticalAlign=middle;fontStyle=0;html=1;fontSize=18;points=[];strokeColor=none;" vertex="1" parent="1">
          <mxGeometry x="3420" y="1546.5" width="120" height="30" as="geometry" />
        </mxCell>
        <mxCell id="6RLW1QieSQcELM51D8rQ-760" value="70" style="text;spacingTop=-5;align=center;verticalAlign=middle;fontStyle=0;html=1;fontSize=18;points=[];strokeColor=none;" vertex="1" parent="1">
          <mxGeometry x="3537.5" y="1546.5" width="120" height="30" as="geometry" />
        </mxCell>
        <mxCell id="6RLW1QieSQcELM51D8rQ-761" value="80" style="text;spacingTop=-5;align=center;verticalAlign=middle;fontStyle=0;html=1;fontSize=18;points=[];strokeColor=none;" vertex="1" parent="1">
          <mxGeometry x="3657.5" y="1546.5" width="120" height="30" as="geometry" />
        </mxCell>
        <mxCell id="6RLW1QieSQcELM51D8rQ-762" value="" style="whiteSpace=wrap;fillColor=#9AC7BF;gradientDirection=east;strokeColor=#9AC7BF;html=1;fontColor=#000000;" vertex="1" parent="1">
          <mxGeometry x="2762.5" y="1232" width="600" height="120" as="geometry" />
        </mxCell>
        <mxCell id="6RLW1QieSQcELM51D8rQ-763" value="" style="whiteSpace=wrap;fillColor=#CCCCFF;gradientDirection=east;strokeColor=none;html=1;fontColor=#ffffff;gradientColor=none;" vertex="1" parent="1">
          <mxGeometry x="2762.5" y="1063" width="720" height="130" as="geometry" />
        </mxCell>
        <mxCell id="6RLW1QieSQcELM51D8rQ-764" value="" style="whiteSpace=wrap;fillColor=#FFCCE6;gradientDirection=east;strokeColor=none;html=1;fontColor=#ffffff;gradientColor=none;" vertex="1" parent="1">
          <mxGeometry x="2762.5" y="906.5" width="920" height="130" as="geometry" />
        </mxCell>
        <mxCell id="6RLW1QieSQcELM51D8rQ-768" value="Cost Barries&amp;nbsp;" style="text;spacingTop=-5;html=1;points=[];fontSize=35;" vertex="1" parent="1">
          <mxGeometry x="2490" y="1270" width="80" height="20" as="geometry" />
        </mxCell>
      </root>
    </mxGraphModel>
  </diagram>
</mxfile>
